<svg xmlns="http://www.w3.org/2000/svg" xmlns:xlink="http://www.w3.org/1999/xlink" viewBox="0 0 125.74 115.83"><defs><style>.cls-1{isolation:isolate;}.cls-2{fill:url(#linear-gradient);}.cls-3{fill:url(#linear-gradient-2);}.cls-4{mix-blend-mode:multiply;fill:url(#linear-gradient-3);}</style><linearGradient id="linear-gradient" x1="307.73" y1="90.7" x2="407.87" y2="190.84" gradientUnits="userSpaceOnUse"><stop offset="0" stop-color="#70e8bc"/><stop offset="1" stop-color="#ff616a"/></linearGradient><linearGradient id="linear-gradient-2" x1="278.98" y1="119.44" x2="379.13" y2="219.58" xlink:href="#linear-gradient"/><linearGradient id="linear-gradient-3" x1="347.33" y1="152.72" x2="358.2" y2="171.47" gradientUnits="userSpaceOnUse"><stop offset="0" stop-color="#272525"/><stop offset="1" stop-color="#fff"/></linearGradient></defs><g class="cls-1"><g id="Object"><path class="cls-2" d="M402.17,185.14H372.31l-43.59-73,10.63-17.79,29.18,48.82a5,5,0,0,0,8.54-5.1l-33.45-56a5,5,0,0,0-8.6.1.35.35,0,0,1,0,.08l-16.32,27.3c-.08.15-.16.3-.23.45a1.89,1.89,0,0,0-.09.21,1.57,1.57,0,0,0-.09.23,2.24,2.24,0,0,0-.11.34l0,.12c0,.11-.05.23-.07.34l0,.13,0,.31a1.1,1.1,0,0,1,0,.18v.49a1.1,1.1,0,0,1,0,.18l0,.31,0,.12c0,.12,0,.24.07.35l0,.11a2,2,0,0,0,.11.35,1.67,1.67,0,0,0,.08.2c0,.08.06.16.1.25s.15.29.23.44h0l46.56,78,.05.07c.09.14.18.27.28.4a.76.76,0,0,0,.08.11,3.79,3.79,0,0,0,.38.42l.14.12.3.26.17.12c.12.09.25.17.38.25l.09.06.53.25.1,0a4,4,0,0,0,.45.15l.15,0,.44.08.15,0a4.93,4.93,0,0,0,.55,0h32.72a5,5,0,1,0,0-10Z" transform="translate(-281.91 -79.69)"/><path class="cls-3" d="M407.44,188.5a66.07,66.07,0,0,0-23.33-33.13,65.49,65.49,0,0,0-78.71.15A66,66,0,0,0,282.12,189a5,5,0,0,0,4.77,6.41,4.62,4.62,0,0,0,.65-.06l38.08.18h.09a4.53,4.53,0,0,0,.52,0l.19,0,.42-.09.17,0a4.85,4.85,0,0,0,1.12-.48l.06,0,.1-.06.23-.16.19-.14.18-.15.2-.18.14-.14.19-.21.12-.15a2,2,0,0,0,.17-.23l.12-.17L330,193l.12-.22c0-.06.06-.13.1-.2l.1-.25.07-.19c0-.09,0-.18.08-.27a1.17,1.17,0,0,0,.05-.2,2,2,0,0,0,0-.26,1.57,1.57,0,0,0,0-.23,1.79,1.79,0,0,0,0-.23,2.64,2.64,0,0,0,0-.28s0-.07,0-.11,0-.06,0-.09,0-.2,0-.3,0-.14,0-.2a2.36,2.36,0,0,0,0-.28c0-.07,0-.15,0-.22l-.06-.24-.08-.24a1.72,1.72,0,0,0-.07-.21,2,2,0,0,0-.11-.26,1.42,1.42,0,0,0-.08-.18l-.14-.27a.56.56,0,0,0,0-.08l-10.73-18a5,5,0,0,0-8.54,5.1l6.21,10.39L294,185.42a55.94,55.94,0,0,1,50.83-33.17,55.23,55.23,0,0,1,53.06,39.17,5,5,0,0,0,9.52-2.92Z" transform="translate(-281.91 -79.69)"/><path class="cls-4" d="M353,152.86a56.41,56.41,0,0,0-8.17-.61c-1.24,0-2.47.05-3.7.14l12.72,21.28h11.59Z" transform="translate(-281.91 -79.69)"/></g></g></svg>